<?xml version="1.0" encoding="UTF-8" standalone="no"?>
<!-- Uploaded to: SVG Repo, www.svgrepo.com, Generator: SVG Repo Mixer Tools -->

<svg
   width="800"
   height="800"
   viewBox="0 0 24 24"
   version="1.1"
   id="svg2"
   xml:space="preserve"
   xmlns="http://www.w3.org/2000/svg"
   xmlns:svg="http://www.w3.org/2000/svg"><defs
     id="defs2" /><g
     id="layer1"><path
       d="m 18,3 c 1.656854,0 3,1.3431457 3,3 v 12 c 0,1.656854 -1.343146,3 -3,3 H 6.0000001 c -1.6568543,0 -3,-1.343146 -3,-3 V 6 c 0,-1.6568543 1.3431457,-3 3,-3 z M 16.46967,7.9696699 10,14.43934 7.5303301,11.96967 c -0.2928932,-0.292893 -0.767767,-0.292893 -1.0606602,0 -0.2928932,0.292893 -0.2928932,0.767767 0,1.06066 l 3.0000001,3 c 0.2928932,0.292893 0.767767,0.292893 1.06066,0 l 7,-6.9999999 c 0.292893,-0.2928932 0.292893,-0.767767 0,-1.0606602 -0.292893,-0.2928932 -0.767767,-0.2928932 -1.06066,0 z"
       id="🎨-Color"
       style="display:none;fill:#ffffff;fill-opacity:1;fill-rule:nonzero;stroke:none;stroke-width:1" /><path
       id="Vector"
       d="m 4.0000009,7.2002008 v 9.6000002 c 0,1.1201 0,1.6799 0.21799,2.1077 0.19174,0.3763 0.49748,0.6826 0.87381,0.8743 0.4274,0.2178 0.98719,0.2178 2.10511,0.2178 h 9.6061901 c 1.1179,0 1.6769,0 2.1043,-0.2178 0.3763,-0.1917 0.6831,-0.498 0.8748,-0.8743 0.2178,-0.4274 0.2178,-0.9864 0.2178,-2.1043 V 7.1969108 c 0,-1.11792 0,-1.67771 -0.2178,-2.10511 -0.1917,-0.37633 -0.4985,-0.68207 -0.8748,-0.87381 -0.4278,-0.21799 -0.9871,-0.21799 -2.1072,-0.21799 H 7.2002009 c -1.12011,0 -1.68058,0 -2.1084,0.21799 -0.37633,0.19174 -0.68207,0.49748 -0.87381,0.87381 -0.21799,0.42782 -0.21799,0.98829 -0.21799,2.1084 z"
       stroke="#000000"
       stroke-width="2"
       stroke-linecap="round"
       stroke-linejoin="round"
       style="display:inline;fill:none;stroke:#ffffff;stroke-opacity:1" /></g></svg>
