<?xml version="1.0" encoding="UTF-8" standalone="no"?>
<!-- Uploaded to: SVG Repo, www.svgrepo.com, Transformed by: SVG Repo Mixer Tools -->

<svg
   fill="#000000"
   width="800px"
   height="800px"
   viewBox="0 0 24 24"
   id="sort-descending"
   data-name="Flat Color"
   class="icon flat-color"
   version="1.1"
   sodipodi:docname="AceTableSortAscernding.svg"
   inkscape:version="1.3.2 (091e20e, 2023-11-25, custom)"
   xmlns:inkscape="http://www.inkscape.org/namespaces/inkscape"
   xmlns:sodipodi="http://sodipodi.sourceforge.net/DTD/sodipodi-0.dtd"
   xmlns="http://www.w3.org/2000/svg"
   xmlns:svg="http://www.w3.org/2000/svg">
  <defs
     id="defs1" />
  <sodipodi:namedview
     id="namedview1"
     pagecolor="#ffffff"
     bordercolor="#000000"
     borderopacity="0.25"
     inkscape:showpageshadow="2"
     inkscape:pageopacity="0.0"
     inkscape:pagecheckerboard="0"
     inkscape:deskcolor="#d1d1d1"
     inkscape:zoom="1.01625"
     inkscape:cx="400.492"
     inkscape:cy="400"
     inkscape:window-width="1920"
     inkscape:window-height="1009"
     inkscape:window-x="3832"
     inkscape:window-y="-8"
     inkscape:window-maximized="1"
     inkscape:current-layer="sort-descending" />
  <g
     id="SVGRepo_bgCarrier"
     stroke-width="0" />
  <g
     id="SVGRepo_tracerCarrier"
     stroke-linecap="round"
     stroke-linejoin="round" />
  <g
     id="SVGRepo_iconCarrier">
    <path
       id="secondary"
       d="M10.71,7.29l-4-4a1,1,0,0,0-1.42,0l-4,4A1,1,0,0,0,2.71,8.71L5,6.41V19a1,1,0,0,0,2,0V6.41l2.29,2.3a1,1,0,0,0,1.42,0A1,1,0,0,0,10.71,7.29Z"
       style="fill: #FFFFFF;" />
    <path
       id="primary"
       d="M20,18H10a1,1,0,0,1,0-2H20a1,1,0,0,1,0,2Zm0-5H13a1,1,0,0,1,0-2h7a1,1,0,0,1,0,2Zm0-5H15a1,1,0,0,1,0-2h5a1,1,0,0,1,0,2Z"
       style="fill:#ffffff" />
  </g>
</svg>
