<?xml version="1.0" encoding="UTF-8" standalone="no"?>
<!-- Uploaded to: SVG Repo, www.svgrepo.com, Generator: SVG Repo Mixer Tools -->

<svg
   width="800"
   height="800"
   viewBox="0 0 24 24"
   version="1.1"
   id="svg2"
   xml:space="preserve"
   xmlns="http://www.w3.org/2000/svg"
   xmlns:svg="http://www.w3.org/2000/svg"><defs
     id="defs2" /><g
     id="layer1"><path
       d="m 18,3 c 1.656854,0 3,1.3431457 3,3 v 12 c 0,1.656854 -1.343146,3 -3,3 H 6.0000001 c -1.6568543,0 -3,-1.343146 -3,-3 V 6 c 0,-1.6568543 1.3431457,-3 3,-3 z M 16.46967,7.9696699 10,14.43934 7.5303301,11.96967 c -0.2928932,-0.292893 -0.767767,-0.292893 -1.0606602,0 -0.2928932,0.292893 -0.2928932,0.767767 0,1.06066 l 3.0000001,3 c 0.2928932,0.292893 0.767767,0.292893 1.06066,0 l 7,-6.9999999 c 0.292893,-0.2928932 0.292893,-0.767767 0,-1.0606602 -0.292893,-0.2928932 -0.767767,-0.2928932 -1.06066,0 z"
       id="🎨-Color"
       style="display:inline;fill:#ffffff;fill-opacity:1;fill-rule:nonzero;stroke:none;stroke-width:1" /></g></svg>
