<?xml version="1.0" encoding="UTF-8" standalone="no"?>
<!-- Generator: Adobe Illustrator 19.0.0, SVG Export Plug-In . SVG Version: 6.00 Build 0)  -->

<svg
   version="1.1"
   id="Layer_1"
   x="0px"
   y="0px"
   viewBox="0 0 16.000002 15.999999"
   xml:space="preserve"
   sodipodi:docname="AceTable.svg"
   inkscape:version="1.2.1 (9c6d41e410, 2022-07-14)"
   width="16.000002"
   height="15.999999"
   xmlns:inkscape="http://www.inkscape.org/namespaces/inkscape"
   xmlns:sodipodi="http://sodipodi.sourceforge.net/DTD/sodipodi-0.dtd"
   xmlns="http://www.w3.org/2000/svg"
   xmlns:svg="http://www.w3.org/2000/svg"><defs
   id="defs77" /><sodipodi:namedview
   id="namedview75"
   pagecolor="#ffffff"
   bordercolor="#000000"
   borderopacity="0.25"
   inkscape:showpageshadow="2"
   inkscape:pageopacity="0.0"
   inkscape:pagecheckerboard="0"
   inkscape:deskcolor="#d1d1d1"
   showgrid="false"
   inkscape:zoom="32"
   inkscape:cx="7.953125"
   inkscape:cy="7.59375"
   inkscape:window-width="1728"
   inkscape:window-height="893"
   inkscape:window-x="-7"
   inkscape:window-y="-7"
   inkscape:window-maximized="1"
   inkscape:current-layer="Layer_1" />
<g
   id="g42"
   transform="matrix(0.03855422,0,0,0.04499817,0,-1.3371206)"
   style="display:inline;fill:#8eef97;fill-opacity:1">
	<g
   id="g4"
   style="fill:#8eef97;fill-opacity:1">
		<rect
   x="148.33299"
   y="114.715"
   width="118.334"
   height="70.190002"
   id="rect2"
   style="fill:#8eef97;fill-opacity:1" />
	</g>
	<g
   id="g8"
   style="fill:#8eef97;fill-opacity:1">
		<rect
   x="148.33299"
   y="315.095"
   width="118.334"
   height="70.190002"
   id="rect6"
   style="fill:#8eef97;fill-opacity:1" />
	</g>
	<g
   id="g12"
   style="fill:#8eef97;fill-opacity:1">
		<rect
   x="296.66699"
   y="114.715"
   width="118.333"
   height="70.190002"
   id="rect10"
   style="fill:#8eef97;fill-opacity:1" />
	</g>
	<g
   id="g16"
   style="fill:#8eef97;fill-opacity:1">
		<path
   id="rect14"
   style="fill:#8eef97;fill-opacity:1"
   d="M 148.33007 214.92218 L 148.33007 285.10733 L 194.37926 285.10733 C 201.99672 278.17947 203.11529 271.02013 203.24461 268.5702 C 197.57423 272.35479 187.76347 277.2219 179.58678 270.30638 C 171.01887 263.29144 172.14705 251.95176 181.71446 243.30876 C 196.06882 231.42807 205.48591 219.01037 207.49998 215.44304 C 209.52052 219.01037 218.98181 231.42807 233.33616 243.30876 C 242.91004 251.83942 244.02496 263.29144 235.71714 270.30638 C 227.40289 277.22199 217.60072 272.35486 212.05931 268.5702 C 212.05931 270.90872 213.08904 278.17816 220.82335 285.10733 L 266.6699 285.10733 L 266.6699 214.92218 L 148.33007 214.92218 z " />
	</g>
	<g
   id="g20"
   style="fill:#8eef97;fill-opacity:1">
		<rect
   x="0"
   y="214.905"
   width="118.333"
   height="70.190002"
   id="rect18"
   style="fill:#8eef97;fill-opacity:1" />
	</g>
	<g
   id="g24"
   style="fill:#8eef97;fill-opacity:1">
		<rect
   x="296.66699"
   y="315.095"
   width="118.333"
   height="70.190002"
   id="rect22"
   style="fill:#8eef97;fill-opacity:1" />
	</g>
	<g
   id="g28"
   style="fill:#8eef97;fill-opacity:1">
		<rect
   x="296.66699"
   y="214.905"
   width="118.333"
   height="70.190002"
   id="rect26"
   style="fill:#8eef97;fill-opacity:1" />
	</g>
	<g
   id="g32"
   style="fill:#8eef97;fill-opacity:1">
		<rect
   y="315.095"
   width="118.333"
   height="70.190002"
   id="rect30"
   x="0"
   style="fill:#8eef97;fill-opacity:1" />
	</g>
	<g
   id="g36"
   style="fill:#8eef97;fill-opacity:1">
		<rect
   x="0"
   y="114.715"
   width="118.333"
   height="70.190002"
   id="rect34"
   style="fill:#8eef97;fill-opacity:1" />
	</g>
	<g
   id="g40"
   style="fill:#8eef97;fill-opacity:1">
		<rect
   y="29.715"
   width="415"
   height="55"
   id="rect38"
   x="0"
   style="fill:#8eef97;fill-opacity:1" />
	</g>
</g>















</svg>
